<svg xmlns="http://www.w3.org/2000/svg" viewBox="0 0 173.79 17.08"><title>logo-white</title><path d="M172.37,0a1.42,1.42,0,0,0-1.42,1.42v6H162.4v-6a1.42,1.42,0,1,0-2.85,0V15.65a1.42,1.42,0,1,0,2.85,0V10.23h8.54v5.42a1.42,1.42,0,0,0,2.85,0V1.42A1.42,1.42,0,0,0,172.37,0Z" transform="translate(0 0.01)" style="fill:#333"/><path d="M126.76,0a1.42,1.42,0,0,0-1.42,1.42V11.8l-6.49-8.23h0l-2.38-3L116.4.49l-.1-.11-.1-.09-.12-.08L116,.15l-.13-.05-.13,0-.13,0h-.28l-.15,0L115,0l-.13,0-.13.05-.11.06-.13.08,0,0-.06.05-.11.11-.08.1-.08.12-.06.12L114,.93l0,.13s0,.09,0,.13a1.41,1.41,0,0,0,0,.15s0,.05,0,.08V15.65a1.42,1.42,0,0,0,2.85,0V5.52L122,12.1,123,13.47h0l2.38,3a1.59,1.59,0,0,0,1.34.58,1.42,1.42,0,0,0,1.42-1.42V1.42A1.42,1.42,0,0,0,126.76,0Z" transform="translate(0 0.01)" style="fill:#333"/><path d="M58.33,14.23h-10V1.42a1.42,1.42,0,1,0-2.85,0V15.65h0a1.42,1.42,0,0,0,1.42,1.42H58.33a1.42,1.42,0,1,0,0-2.85Z" transform="translate(0 0.01)" style="fill:#333"/><path id="logo-color" d="M81.71,17A1.47,1.47,0,0,0,82.47,15L76.79,1a1.6,1.6,0,0,0-.17-.31A1.35,1.35,0,0,0,76,.12,1.33,1.33,0,0,0,75.51,0h-.14a1.33,1.33,0,0,0-.46.09,1.35,1.35,0,0,0-.65.56,1.6,1.6,0,0,0-.17.31L68.4,15A1.47,1.47,0,0,0,69.15,17" transform="translate(0 0.01)" style="fill:#2196f3"/><path d="M12.8,0a1.42,1.42,0,0,0-1.42,1.42V10a4.27,4.27,0,0,1-8.54,0V1.42A1.42,1.42,0,1,0,0,1.42V10a7.11,7.11,0,0,0,14.23,0V1.42A1.42,1.42,0,0,0,12.8,0Z" transform="translate(0 0.01)" style="fill:#666"/><path d="M29.88,11.38a4.27,4.27,0,0,0,0-8.54H25.61v8.54Z" transform="translate(0 0.01)" style="fill:none"/><path d="M35.56,2.85A7.09,7.09,0,0,0,29.88,0H24.18a1.42,1.42,0,0,0-1.42,1.42V15.65a1.42,1.42,0,0,0,2.85,0V14.23h4.27A7.1,7.1,0,0,0,35.56,2.85Zm-5.68,8.54H25.61V2.85h4.27a4.27,4.27,0,0,1,0,8.54Z" transform="translate(0 0.01)" style="fill:#666"/><path d="M103.92,0a1.42,1.42,0,0,0-1.42,1.42V10A4.27,4.27,0,0,1,94,10V1.42a1.42,1.42,0,1,0-2.85,0V10a7.11,7.11,0,0,0,14.23,0V1.42A1.42,1.42,0,0,0,103.92,0Z" transform="translate(0 0.01)" style="fill:#333"/><path d="M149.59,14.22h-5.76l-.48,0a4.26,4.26,0,0,1-3.78-4.05V6.92a4.26,4.26,0,0,1,3.78-4.05l.48,0h5.76a1.42,1.42,0,1,0,0-2.85h-5.76a7,7,0,0,0-4.26,1.44,7.18,7.18,0,0,0-1.42,1.41,7.07,7.07,0,0,0-1.42,4.05c0,.07,0,.32,0,.38V9.79c0,.05,0,.31,0,.38a7.07,7.07,0,0,0,1.42,4.05,7.18,7.18,0,0,0,1.42,1.41,7,7,0,0,0,4.26,1.44h5.76a1.42,1.42,0,1,0,0-2.85Z" transform="translate(0 0.01)" style="fill:#333"/></svg>